<?xml version="1.0" encoding="utf-8"?>
<!-- Generator: Adobe Illustrator 24.0.1, SVG Export Plug-In . SVG Version: 6.00 Build 0)  -->
<svg version="1.1" xmlns="http://www.w3.org/2000/svg" xmlns:xlink="http://www.w3.org/1999/xlink" x="0px" y="0px"
	 viewBox="0 0 300 300" style="enable-background:new 0 0 300 300;" xml:space="preserve">
<style type="text/css">
	.st0{fill:#FFFFFF;}
	.st1{fill:none;stroke:#2C3E50;stroke-width:2.3502;stroke-miterlimit:10;}
	.st2{fill:none;stroke:#2C3E50;stroke-width:2.3502;stroke-linecap:round;stroke-miterlimit:10;}
	.st3{fill:#2C3E50;}
</style>
<g id="BACKGROUND">
	<rect x="-225" y="-100" class="st0" width="750" height="500"/>
</g>
<g id="OBJECTS">
	<g>
		<path class="st1" d="M200.78,111.4v31.9c0,25.88-20.98,46.86-46.86,46.86h0c-25.88,0-46.86-20.98-46.86-46.86v-33.66
			c0,0-2.64-18.48,13.2-25.08C120.27,84.56,147.55,111.4,200.78,111.4z"/>
		<path class="st1" d="M107.07,134.72h-2.35c-7.13,0-12.91,5.78-12.91,12.91l0,0c0,7.13,5.78,12.91,12.91,12.91h5.63"/>
		<path class="st1" d="M200.83,134.72h2.35c7.13,0,12.91,5.78,12.91,12.91l0,0c0,7.13-5.78,12.91-12.91,12.91h-5.63"/>
		<path class="st1" d="M127.6,182.06v19.79c0,14.56,11.8,26.36,26.36,26.36h0c14.56,0,26.36-11.8,26.36-26.36v-19.79"/>
		<g>
			<path class="st2" d="M127.6,201.85l-41.86,24.17c-9.99,5.77-16.77,15.8-18.39,27.22l-7.21,50.72"/>
			<path class="st2" d="M180.32,201.85l41.86,24.17c9.99,5.77,16.77,15.8,18.39,27.22l7.21,50.72"/>
		</g>
		<path class="st3" d="M99.2,135.97c0,0-4.74-26.19-5.04-45.25c-0.29-19.06,17.89-25.22,17.89-25.22s6.75-29.33,46.93-23.17
			c40.18,6.16,54.36,31.5,57.1,46.4s-9.27,46.52-9.27,46.52l-3.64-0.53l-2.4-3.37V111.4c0,0-26.46-0.19-41.9-6.11
			c-15.43-5.92-39.99-20.1-39.99-20.1s-11.55,7.11-11.68,17.21c-0.14,10.1-0.14,29.46-0.14,29.46l-2.35,2.86L99.2,135.97z"/>
		<g>
			<path class="st3" d="M138.04,125.48c0-2.92-2.36-5.28-5.28-5.28c-2.92,0-5.28,2.36-5.28,5.28c0,2.92,2.36,5.28,5.28,5.28
				C135.68,130.76,138.04,128.39,138.04,125.48z"/>
			<circle class="st3" cx="174.93" cy="125.48" r="5.28"/>
		</g>
		<path class="st2" d="M124.44,147.56c0,0,8.53,12.15,29.48,12.15c20.95,0,29.32-12.15,29.32-12.15"/>
		<path class="st2" d="M153.96,147.62c0,0,6.78-3.37,7.08-6.53c0.29-3.15-3.54-10.34-3.54-10.34"/>
		<path class="st2" d="M140.51,114.7c0,0-9.46-9.24-19.36,0"/>
		<path class="st2" d="M170.53,114.7c0,0,9.46-9.24,19.36,0"/>
		<path class="st3" d="M158.99,190.48l-31.38,6.57v-12.61c0,0,1.15-1.17,3.88,0C134.2,185.61,151.02,191.77,158.99,190.48z"/>
		<path class="st2" d="M74.56,235.9l3.99,7.4c10.05,18.64,15.32,39.48,15.32,60.66l0,0"/>
		<path class="st2" d="M233.36,235.9l-3.99,7.4c-10.05,18.64-15.32,39.48-15.32,60.66l0,0"/>
		<path class="st2" d="M121.15,213.14c0,0,4.38,22.76,36.36,22.76c24.13,0,28.75-22.76,28.75-22.76"/>
		<path class="st2" d="M124.44,252.9c0,0,27.8,45.77,61.82,51.05"/>
	</g>
</g>
</svg>
